<svg xmlns="http://www.w3.org/2000/svg" version="1.1" xmlns:xlink="http://www.w3.org/1999/xlink" xmlns:svgjs="http://svgjs.dev/svgjs" width="2000" height="1500" viewBox="0 0 2000 1500"><rect width="2000" height="1500" fill="#4b91f1"></rect><g transform="matrix(0.75,0,0,0.75,249.090909090909,516.0593265702688)"><svg viewBox="0 0 396 124" data-background-color="#4b91f1" preserveAspectRatio="xMidYMid meet" height="626" width="2000" xmlns="http://www.w3.org/2000/svg" xmlns:xlink="http://www.w3.org/1999/xlink"><g id="tight-bounds" transform="matrix(1,0,0,1,0.2400000000000091,-0.21375185242456496)"><svg viewBox="0 0 395.52 124.42750370484914" height="124.42750370484914" width="395.52"><g><svg viewBox="0 0 627.3465279496884 197.3583192523364" height="124.42750370484914" width="395.52"><g transform="matrix(1,0,0,1,231.8265279496883,60.986585284621896)"><svg viewBox="0 0 395.52000000000004 75.38514868309261" height="75.38514868309261" width="395.52000000000004"><g id="textblocktransform"><svg viewBox="0 0 395.52000000000004 75.38514868309261" height="75.38514868309261" width="395.52000000000004" id="textblock"><g><svg viewBox="0 0 395.52000000000004 75.38514868309261" height="75.38514868309261" width="395.52000000000004"><g transform="matrix(1,0,0,1,0,0)"><svg width="395.52000000000004" viewBox="3.78 -33.13 176.53 33.660000000000004" height="75.38514868309261" data-palette-color="#77d4fc"><path d="M15.65-10.63L6.48-10.63 6.48-14.08 15.55-14.08Q18.82-14.08 20.3-15.71 21.78-17.35 21.78-20.23L21.78-20.23 21.78-22.4Q21.78-25.33 20.31-26.93 18.85-28.53 15.6-28.53L15.6-28.53 6.45-28.53 6.45-31.95 15.68-31.95Q21.03-31.95 23.46-29.44 25.9-26.93 25.9-22.53L25.9-22.53 25.9-20.13Q25.9-15.68 23.44-13.15 20.98-10.63 15.65-10.63L15.65-10.63ZM7.88 0L3.78 0 3.78-31.95 7.85-31.95 7.85-13.05 7.88-11.2 7.88 0ZM35.17-14.93L35.17-14.93 34.25-18.05 35.25-18.1Q36.05-21.2 38-22.99 39.95-24.78 43.17-24.78L43.17-24.78Q43.97-24.78 44.61-24.65 45.25-24.53 45.75-24.35L45.75-24.35 46-20.43Q45.37-20.63 44.61-20.75 43.85-20.88 42.92-20.88L42.92-20.88Q40.17-20.88 38.14-19.35 36.1-17.82 35.17-14.93ZM35.37 0L31.32 0 31.32-24.4 35.27-24.4 35.07-17.2 35.37-16.9 35.37 0ZM68.47 0L64.45 0 64.62-5.93 64.47-6.55 64.47-14.33 64.5-15.75Q64.5-18.73 62.98-20.15 61.47-21.58 58.2-21.58L58.2-21.58Q55.57-21.58 53.38-20.83 51.2-20.08 49.5-19.07L49.5-19.07 49.87-22.53Q50.82-23.1 52.13-23.66 53.45-24.23 55.13-24.6 56.82-24.98 58.84-24.98L58.84-24.98Q61.47-24.98 63.31-24.34 65.15-23.7 66.28-22.5 67.42-21.3 67.95-19.6 68.47-17.9 68.47-15.8L68.47-15.8 68.47 0ZM56.05 0.53L56.05 0.53Q52.42 0.53 50.48-1.24 48.55-3 48.55-6.28L48.55-6.28 48.55-7Q48.55-10.38 50.63-12.04 52.72-13.7 57.27-14.35L57.27-14.35 65-15.45 65.22-12.5 57.77-11.43Q54.97-11.03 53.77-10.06 52.57-9.1 52.57-7.23L52.57-7.23 52.57-6.83Q52.57-4.9 53.76-3.88 54.95-2.85 57.32-2.85L57.32-2.85Q59.42-2.85 60.92-3.58 62.42-4.3 63.34-5.53 64.27-6.75 64.59-8.25L64.59-8.25 65.22-5.5 64.45-5.5Q64.09-3.9 63.13-2.53 62.17-1.15 60.45-0.31 58.72 0.53 56.05 0.53ZM83.54 0.5L83.54 0.5Q80.72 0.5 78.99-0.35 77.27-1.2 76.49-2.93 75.72-4.65 75.72-7.23L75.72-7.23 75.72-22.63 79.72-22.63 79.72-7.7Q79.72-5.3 80.82-4.16 81.92-3.03 84.52-3.03L84.52-3.03Q85.99-3.03 87.36-3.35 88.72-3.68 89.92-4.28L89.92-4.28 89.54-0.8Q88.37-0.2 86.79 0.15 85.22 0.5 83.54 0.5ZM89.29-20.8L71.72-20.8 71.72-24.05 89.67-24.05 89.29-20.8ZM79.62-23.65L75.74-23.65 75.72-30.5 79.79-31.03 79.62-23.65ZM114.82 0L110.77 0 110.77-15.18Q110.77-17.15 110.23-18.57 109.69-20 108.48-20.79 107.27-21.58 105.17-21.58L105.17-21.58Q103.24-21.58 101.84-20.85 100.44-20.13 99.58-18.89 98.72-17.65 98.37-16.07L98.37-16.07 97.47-18.95 98.52-18.95Q98.89-20.6 99.89-21.96 100.89-23.33 102.58-24.14 104.27-24.95 106.69-24.95L106.69-24.95Q109.59-24.95 111.38-23.85 113.17-22.75 113.99-20.69 114.82-18.63 114.82-15.63L114.82-15.63 114.82 0ZM98.49 0L94.44 0 94.44-33.13 98.47-33.13 98.47-25.18 98.34-18.18 98.49-17.85 98.49 0ZM139.59 0L135.56 0 135.74-5.93 135.59-6.55 135.59-14.33 135.61-15.75Q135.61-18.73 134.1-20.15 132.59-21.58 129.31-21.58L129.31-21.58Q126.69-21.58 124.5-20.83 122.31-20.08 120.61-19.07L120.61-19.07 120.99-22.53Q121.94-23.1 123.25-23.66 124.56-24.23 126.25-24.6 127.94-24.98 129.96-24.98L129.96-24.98Q132.59-24.98 134.43-24.34 136.26-23.7 137.4-22.5 138.54-21.3 139.06-19.6 139.59-17.9 139.59-15.8L139.59-15.8 139.59 0ZM127.16 0.53L127.16 0.53Q123.54 0.53 121.6-1.24 119.66-3 119.66-6.28L119.66-6.28 119.66-7Q119.66-10.38 121.75-12.04 123.84-13.7 128.39-14.35L128.39-14.35 136.11-15.45 136.34-12.5 128.89-11.43Q126.09-11.03 124.89-10.06 123.69-9.1 123.69-7.23L123.69-7.23 123.69-6.83Q123.69-4.9 124.88-3.88 126.06-2.85 128.44-2.85L128.44-2.85Q130.54-2.85 132.04-3.58 133.54-4.3 134.46-5.53 135.39-6.75 135.71-8.25L135.71-8.25 136.34-5.5 135.56-5.5Q135.21-3.9 134.25-2.53 133.29-1.15 131.56-0.31 129.84 0.53 127.16 0.53ZM180.31 0L176.26 0 176.26-15.28Q176.26-17.2 175.77-18.61 175.29-20.03 174.17-20.8 173.06-21.58 171.19-21.58L171.19-21.58Q169.41-21.58 168.11-20.85 166.81-20.13 166.01-18.91 165.21-17.7 164.89-16.15L164.89-16.15 164.26-19.03 164.76-19.03Q165.16-20.6 166.11-21.95 167.06-23.3 168.69-24.13 170.31-24.95 172.71-24.95L172.71-24.95Q175.44-24.95 177.1-23.88 178.76-22.8 179.54-20.74 180.31-18.68 180.31-15.73L180.31-15.73 180.31 0ZM149.84 0L145.79 0 145.79-24.4 149.84-24.4 149.66-18.55 149.84-18.3 149.84 0ZM165.06 0L161.04 0 161.04-15.28Q161.04-17.2 160.55-18.61 160.06-20.03 158.96-20.8 157.86-21.58 155.99-21.58L155.99-21.58Q154.19-21.58 152.89-20.85 151.59-20.13 150.79-18.89 149.99-17.65 149.66-16.07L149.66-16.07 148.91-18.95 149.81-18.95Q150.19-20.6 151.11-21.96 152.04-23.33 153.62-24.14 155.21-24.95 157.49-24.95L157.49-24.95Q160.86-24.95 162.62-23.2 164.39-21.45 164.84-18.1L164.84-18.1Q164.96-17.6 165.01-17.01 165.06-16.43 165.06-15.85L165.06-15.85 165.06 0Z" opacity="1" transform="matrix(1,0,0,1,0,0)" fill="#77d4fc" class="wordmark-text-0" data-fill-palette-color="primary" id="text-0"></path></svg></g></svg></g></svg></g></svg></g><g><svg viewBox="0 0 214.02990358917853 197.3583192523364" height="197.3583192523364" width="214.02990358917853"><g><svg xmlns="http://www.w3.org/2000/svg" xmlns:xlink="http://www.w3.org/1999/xlink" version="1.1" x="0" y="0" viewBox="50 66 412.1 380" style="enable-background:new 0 0 512 512;" xml:space="preserve" height="197.3583192523364" width="214.02990358917853" class="icon-icon-0" data-fill-palette-color="accent" id="icon-0"><g fill="#0718c4" data-fill-palette-color="accent"><path d="M50 326.9c0 12.8 10.7 23.1 23.6 23.1h364.9c12.8 0 23.6-10.3 23.6-23.1V306H50V326.9z" fill="#0718c4" data-fill-palette-color="accent"></path><path d="M263.2 179.2C263.2 179.2 263.2 179.2 263.2 179.2c0-4.5-3.7-8.2-8.2-8.2-4.5 0-8.2 3.7-8.2 8.2s3.7 8.2 8.2 8.2C259.6 187.4 263.2 183.7 263.2 179.2z" fill="#0718c4" data-fill-palette-color="accent"></path><path d="M255.1 116.1c-4.5 0-8.2 3.7-8.2 8.2 0 4.5 3.7 8.2 8.2 8.2 4.5 0 8.2-3.7 8.2-8.2 0 0 0 0 0 0C263.2 119.8 259.6 116.1 255.1 116.1z" fill="#0718c4" data-fill-palette-color="accent"></path><path d="M255.1 227.7c-4.5 0-8.2 3.7-8.2 8.2 0 4.5 3.7 8.2 8.2 8.2 4.5 0 8.2-3.7 8.2-8.2C263.2 231.4 259.6 227.7 255.1 227.7z" fill="#0718c4" data-fill-palette-color="accent"></path><path d="M200.2 171c-4.5 0-8.2 3.7-8.2 8.2s3.7 8.2 8.2 8.2c4.5 0 8.2-3.7 8.2-8.2 0 0 0 0 0 0C208.4 174.6 204.7 171 200.2 171z" fill="#0718c4" data-fill-palette-color="accent"></path><path d="M200.2 132.5c4.5 0 8.2-3.7 8.2-8.2 0-4.5-3.7-8.2-8.2-8.2-4.5 0-8.2 3.7-8.2 8.2 0 0 0 0 0 0C192 128.8 195.7 132.5 200.2 132.5z" fill="#0718c4" data-fill-palette-color="accent"></path><path d="M200.2 227.7c-4.5 0-8.2 3.7-8.2 8.2 0 4.5 3.7 8.2 8.2 8.2 4.5 0 8.2-3.7 8.2-8.2 0 0 0 0 0 0C208.4 231.4 204.7 227.7 200.2 227.7z" fill="#0718c4" data-fill-palette-color="accent"></path><path d="M438.4 66H73.6C60.7 66 50.2 76.4 50 89.2V294h412V89.2C461.8 76.4 451.3 66 438.4 66zM291.6 124.3c0-11.1 9-20.2 20.2-20.2 11.2 0 20.2 9 20.2 20.2s-9 20.2-20.2 20.2S291.6 135.5 291.6 124.3C291.6 124.3 291.6 124.3 291.6 124.3zM200.2 256.1c-11.2 0-20.2-9-20.2-20.2 0-11.2 9-20.2 20.2-20.2 11.2 0 20.2 9 20.2 20.2C220.4 247.1 211.3 256.1 200.2 256.1zM275.2 235.9c0 11.2-9 20.2-20.1 20.3-11.2 0-20.2-9-20.3-20.1 0-1.8 0.2-3.6 0.7-5.3L203.8 199c-11 2-21.5-5.2-23.6-16.2-0.2-1.2-0.3-2.4-0.3-3.7 0-8.7 6.1-16.1 13.1-18.9v-17c-7-2.8-13.1-10.2-13.1-18.9 0-11.1 9-20.2 20.2-20.2s20.2 9 20.2 20.2c0 0 0 0 0 0 0.1 9.3-6.2 17.3-15.2 19.5v15.8c10.8 2.7 17.4 13.7 14.7 24.5-0.8 3.4-2.5 6.4-4.9 8.9l27.4 27.3c2.3-1.9 5-3.3 7.9-4v-17.7c-10.8-2.8-17.3-13.8-14.5-24.6 2.8-10.8 13.8-17.3 24.6-14.5 10.8 2.8 17.3 13.8 14.5 24.6-1.7 6.4-6.4 11.6-12.6 13.9V217C269.9 219.9 275.2 227.5 275.2 235.9L275.2 235.9zM319 198.1V217c7 2.8 13.1 10.2 13.1 18.9 0 11.1-9 20.2-20.2 20.2-11.1 0-20.2-9-20.2-20.2 0 0 0 0 0 0-0.1-9.3 6.2-17.3 15.2-19.5v-17.7c-10.8-2.7-17.4-13.7-14.6-24.5 0.3-1.3 0.8-2.6 1.4-3.9l-28.5-28.6c-9.7 5.7-22.1 2.5-27.8-7.1-5.7-9.7-2.5-22.1 7.1-27.8 9.7-5.7 22.1-2.5 27.8 7.1 3.4 5.8 3.8 12.9 0.9 18.9l28.6 28.8c3-1.7 6.4-2.6 9.9-2.6 11.2 0 20.2 9 20.3 20.2C332.1 187.8 326 195.3 319 198.1z" fill="#0718c4" data-fill-palette-color="accent"></path><path d="M311.8 132.5c4.5 0 8.2-3.7 8.2-8.2 0-4.5-3.7-8.2-8.2-8.2-4.5 0-8.2 3.7-8.2 8.2 0 0 0 0 0 0C303.6 128.8 307.3 132.5 311.8 132.5z" fill="#0718c4" data-fill-palette-color="accent"></path><path d="M311.8 171c-4.5 0-8.2 3.7-8.2 8.2s3.7 8.2 8.2 8.2 8.2-3.7 8.2-8.2c0 0 0 0 0 0C320 174.6 316.3 171 311.8 171z" fill="#0718c4" data-fill-palette-color="accent"></path><path d="M311.8 227.7c-4.5 0-8.2 3.7-8.2 8.2 0 4.5 3.7 8.2 8.2 8.2 4.5 0 8.2-3.7 8.2-8.2C320 231.4 316.3 227.7 311.8 227.7z" fill="#0718c4" data-fill-palette-color="accent"></path><path d="M351.2 434H318v-78H194v78h-27.9c-3.3 0-6 2.7-6 6s2.7 6 6 6h185c3.3 0 6-2.7 6-6S354.5 434 351.2 434z" fill="#0718c4" data-fill-palette-color="accent"></path></g></svg></g></svg></g></svg></g><defs></defs></svg><rect width="395.52" height="124.42750370484914" fill="none" stroke="none" visibility="hidden"></rect></g></svg></g></svg>